<svg xmlns="http://www.w3.org/2000/svg" xmlns:xlink="http://www.w3.org/1999/xlink" width="1280" zoomAndPan="magnify" viewBox="0 0 960 599.999999" height="800" preserveAspectRatio="xMidYMid meet" version="1.0"><defs><clipPath id="c7a793a397"><path d="M 13 0 L 247 0 L 247 204.21875 L 13 204.21875 Z M 13 0 " clip-rule="nonzero"/></clipPath><clipPath id="474b132950"><path d="M 268 195 L 502 195 L 502 424.839844 L 268 424.839844 Z M 268 195 " clip-rule="nonzero"/></clipPath><clipPath id="dd6d22ed30"><path d="M 523 195 L 757 195 L 757 424.839844 L 523 424.839844 Z M 523 195 " clip-rule="nonzero"/></clipPath><clipPath id="67d16c060f"><path d="M 766 0 L 960 0 L 960 197.5 L 766 197.5 Z M 766 0 " clip-rule="nonzero"/></clipPath><clipPath id="137d41fabd"><path d="M 766 202 L 960 202 L 960 432.304688 L 766 432.304688 Z M 766 202 " clip-rule="nonzero"/></clipPath></defs><rect x="-96" width="1152" fill="#ffffff" y="-60" height="719.999999" fill-opacity="1"/><rect x="-96" width="1152" fill="#969fae" y="-60" height="719.999999" fill-opacity="1"/><g clip-path="url(#c7a793a397)"><path fill="#456073" d="M 187.566406 167.800781 C 187.566406 187.886719 171.300781 204.152344 151.214844 204.152344 C 132.089844 204.152344 116.402344 189.394531 114.972656 170.628906 C 118.515625 171.785156 122.308594 172.414062 126.265625 172.414062 C 146.351562 172.414062 162.617188 156.148438 162.617188 136.0625 C 162.617188 135.101562 162.589844 134.167969 162.507812 133.234375 C 177.070312 137.984375 187.566406 151.667969 187.566406 167.800781 Z M 151.214844 131.445312 C 155.144531 131.445312 158.964844 132.078125 162.507812 133.234375 C 161.050781 114.464844 145.390625 99.710938 126.265625 99.710938 C 106.179688 99.710938 89.914062 115.976562 89.914062 136.0625 C 89.914062 152.191406 100.4375 165.875 114.972656 170.628906 C 114.890625 169.695312 114.863281 168.761719 114.863281 167.800781 C 114.863281 147.714844 131.15625 131.445312 151.214844 131.445312 Z M 57.492188 16.015625 C 59.359375 12.523438 61.695312 9.503906 64.386719 6.890625 C 47.160156 -0.664062 26.742188 6.175781 17.730469 23.046875 C 8.277344 40.742188 14.957031 62.78125 32.652344 72.261719 C 46.882812 79.871094 63.890625 77.042969 74.9375 66.460938 C 74.085938 66.078125 73.234375 65.664062 72.382812 65.226562 C 54.6875 55.746094 48.011719 33.710938 57.492188 16.015625 Z M 121.59375 50.277344 C 131.046875 32.582031 124.371094 10.546875 106.675781 1.066406 C 92.441406 -6.542969 75.433594 -3.714844 64.386719 6.863281 C 65.238281 7.25 66.089844 7.660156 66.941406 8.101562 C 84.636719 17.554688 91.34375 39.589844 81.863281 57.3125 C 79.996094 60.800781 77.660156 63.824219 74.964844 66.433594 C 92.167969 74.019531 112.582031 67.148438 121.59375 50.277344 Z M 240.378906 -9.292969 C 229.222656 -26 206.636719 -30.476562 189.957031 -19.320312 C 176.550781 -10.363281 171 5.984375 175.148438 20.714844 C 175.890625 20.136719 176.660156 19.585938 177.429688 19.035156 C 194.136719 7.882812 216.695312 12.359375 227.847656 29.066406 C 230.046875 32.335938 231.613281 35.851562 232.628906 39.453125 C 247.414062 27.828125 250.984375 6.589844 240.378906 -9.292969 Z M 179.902344 31.097656 C 177.703125 27.828125 176.136719 24.3125 175.121094 20.714844 C 160.335938 32.335938 156.765625 53.574219 167.371094 69.484375 C 178.527344 86.191406 201.113281 90.671875 217.792969 79.515625 C 231.203125 70.558594 236.753906 54.207031 232.601562 39.480469 C 231.859375 40.058594 231.09375 40.605469 230.324219 41.15625 C 213.644531 52.285156 191.058594 47.777344 179.902344 31.097656 Z M 179.902344 31.097656 " fill-opacity="1" fill-rule="nonzero"/></g><path fill="#456073" d="M 187.839844 402.601562 C 187.839844 422.6875 171.574219 438.953125 151.488281 438.953125 C 132.363281 438.953125 116.675781 424.199219 115.246094 405.429688 C 118.789062 406.585938 122.582031 407.21875 126.539062 407.21875 C 146.625 407.21875 162.890625 390.949219 162.890625 370.863281 C 162.890625 369.902344 162.863281 368.96875 162.78125 368.035156 C 177.34375 372.789062 187.839844 386.472656 187.839844 402.601562 Z M 151.488281 366.25 C 155.417969 366.25 159.238281 366.878906 162.78125 368.035156 C 161.324219 349.265625 145.664062 334.511719 126.539062 334.511719 C 106.453125 334.511719 90.1875 350.777344 90.1875 370.863281 C 90.1875 386.992188 100.710938 400.675781 115.246094 405.429688 C 115.164062 404.496094 115.136719 403.5625 115.136719 402.601562 C 115.136719 382.515625 131.429688 366.25 151.488281 366.25 Z M 57.765625 250.816406 C 59.632812 247.328125 61.96875 244.304688 64.660156 241.695312 C 47.433594 234.136719 27.015625 240.980469 18.003906 257.851562 C 8.550781 275.546875 15.230469 297.582031 32.925781 307.0625 C 47.15625 314.671875 64.167969 311.84375 75.210938 301.265625 C 74.359375 300.878906 73.507812 300.46875 72.65625 300.027344 C 54.960938 290.546875 48.285156 268.511719 57.765625 250.816406 Z M 121.867188 285.082031 C 131.320312 267.386719 124.644531 245.347656 106.949219 235.867188 C 92.714844 228.257812 75.707031 231.085938 64.660156 241.667969 C 65.511719 242.050781 66.363281 242.464844 67.214844 242.902344 C 84.910156 252.355469 91.617188 274.390625 82.136719 292.113281 C 80.269531 295.605469 77.933594 298.625 75.238281 301.238281 C 92.441406 308.820312 112.855469 301.953125 121.867188 285.082031 Z M 240.652344 225.507812 C 229.496094 208.804688 206.910156 204.324219 190.230469 215.480469 C 176.824219 224.4375 171.273438 240.785156 175.421875 255.515625 C 176.164062 254.9375 176.933594 254.386719 177.703125 253.839844 C 194.410156 242.683594 216.96875 247.160156 228.125 263.867188 C 230.320312 267.136719 231.886719 270.65625 232.902344 274.253906 C 247.6875 262.632812 251.257812 241.390625 240.652344 225.507812 Z M 180.175781 265.902344 C 177.976562 262.632812 176.410156 259.113281 175.394531 255.515625 C 160.613281 267.136719 157.039062 288.378906 167.644531 304.289062 C 178.800781 320.992188 201.386719 325.472656 218.066406 314.316406 C 231.476562 305.359375 237.027344 289.007812 232.875 274.28125 C 232.136719 274.859375 231.367188 275.410156 230.597656 275.957031 C 213.917969 287.085938 191.332031 282.578125 180.175781 265.902344 Z M 180.175781 265.902344 " fill-opacity="1" fill-rule="nonzero"/><path fill="#456073" d="M 187.839844 622.476562 C 187.839844 642.5625 171.574219 658.832031 151.488281 658.832031 C 132.363281 658.832031 116.675781 644.074219 115.246094 625.308594 C 118.789062 626.460938 122.582031 627.09375 126.539062 627.09375 C 146.625 627.09375 162.890625 610.828125 162.890625 590.742188 C 162.890625 589.78125 162.863281 588.847656 162.78125 587.910156 C 177.34375 592.664062 187.839844 606.347656 187.839844 622.476562 Z M 151.488281 586.125 C 155.417969 586.125 159.238281 586.757812 162.78125 587.910156 C 161.324219 569.144531 145.664062 554.390625 126.539062 554.390625 C 106.453125 554.390625 90.1875 570.65625 90.1875 590.742188 C 90.1875 606.871094 100.710938 620.554688 115.246094 625.308594 C 115.164062 624.375 115.136719 623.441406 115.136719 622.476562 C 115.136719 602.390625 131.429688 586.125 151.488281 586.125 Z M 57.765625 470.695312 C 59.632812 467.203125 61.96875 464.179688 64.660156 461.570312 C 47.433594 454.015625 27.015625 460.855469 18.003906 477.726562 C 8.550781 495.421875 15.230469 517.460938 32.925781 526.941406 C 47.15625 534.550781 64.167969 531.71875 75.210938 521.140625 C 74.359375 520.757812 73.507812 520.34375 72.65625 519.90625 C 54.960938 510.425781 48.285156 488.390625 57.765625 470.695312 Z M 121.867188 504.957031 C 131.320312 487.261719 124.644531 465.226562 106.949219 455.746094 C 92.714844 448.132812 75.707031 450.964844 64.660156 461.542969 C 65.511719 461.929688 66.363281 462.339844 67.214844 462.78125 C 84.910156 472.230469 91.617188 494.269531 82.136719 511.992188 C 80.269531 515.480469 77.933594 518.503906 75.238281 521.113281 C 92.441406 528.699219 112.855469 521.828125 121.867188 504.957031 Z M 240.652344 445.386719 C 229.496094 428.679688 206.910156 424.203125 190.230469 435.359375 C 176.824219 444.316406 171.273438 460.664062 175.421875 475.390625 C 176.164062 474.816406 176.933594 474.265625 177.703125 473.714844 C 194.410156 462.558594 216.96875 467.039062 228.125 483.746094 C 230.320312 487.015625 231.886719 490.53125 232.902344 494.132812 C 247.6875 482.507812 251.257812 461.269531 240.652344 445.386719 Z M 180.175781 485.777344 C 177.976562 482.507812 176.410156 478.992188 175.394531 475.390625 C 160.613281 487.015625 157.039062 508.253906 167.644531 524.164062 C 178.800781 540.871094 201.386719 545.347656 218.066406 534.195312 C 231.476562 525.234375 237.027344 508.886719 232.875 494.160156 C 232.136719 494.734375 231.367188 495.285156 230.597656 495.835938 C 213.917969 506.964844 191.332031 502.457031 180.175781 485.777344 Z M 180.175781 485.777344 " fill-opacity="1" fill-rule="nonzero"/><path fill="#456073" d="M 442.625 153.621094 C 442.625 173.707031 426.359375 189.972656 406.273438 189.972656 C 387.148438 189.972656 371.457031 175.21875 370.03125 156.449219 C 373.574219 157.605469 377.367188 158.234375 381.324219 158.234375 C 401.410156 158.234375 417.675781 141.96875 417.675781 121.882812 C 417.675781 120.921875 417.648438 119.988281 417.566406 119.054688 C 432.128906 123.808594 442.625 137.492188 442.625 153.621094 Z M 406.273438 117.269531 C 410.199219 117.269531 414.019531 117.898438 417.566406 119.054688 C 416.109375 100.285156 400.445312 85.53125 381.324219 85.53125 C 361.238281 85.53125 344.96875 101.796875 344.96875 121.882812 C 344.96875 138.011719 355.492188 151.695312 370.03125 156.449219 C 369.945312 155.515625 369.917969 154.582031 369.917969 153.621094 C 369.917969 133.535156 386.214844 117.269531 406.273438 117.269531 Z M 312.546875 1.835938 C 314.414062 -1.652344 316.75 -4.675781 319.445312 -7.285156 C 302.214844 -14.84375 281.800781 -8 272.789062 8.871094 C 263.335938 26.566406 270.011719 48.601562 287.707031 58.082031 C 301.941406 65.691406 318.949219 62.863281 329.996094 52.285156 C 329.144531 51.898438 328.292969 51.488281 327.441406 51.046875 C 309.746094 41.566406 303.066406 19.53125 312.546875 1.835938 Z M 376.652344 36.101562 C 386.105469 18.40625 379.425781 -3.632812 361.730469 -13.113281 C 347.496094 -20.722656 330.488281 -17.894531 319.445312 -7.3125 C 320.296875 -6.929688 321.148438 -6.519531 322 -6.078125 C 339.695312 3.375 346.398438 25.410156 336.917969 43.132812 C 335.050781 46.625 332.714844 49.644531 330.023438 52.257812 C 347.222656 59.839844 367.640625 52.972656 376.652344 36.101562 Z M 495.4375 -23.472656 C 484.28125 -40.175781 461.695312 -44.65625 445.015625 -33.5 C 431.605469 -24.542969 426.054688 -8.195312 430.203125 6.535156 C 430.945312 5.957031 431.714844 5.40625 432.484375 4.859375 C 449.191406 -6.296875 471.75 -1.820312 482.90625 14.886719 C 485.105469 18.15625 486.671875 21.675781 487.6875 25.273438 C 502.46875 13.652344 506.042969 -7.589844 495.4375 -23.472656 Z M 434.957031 16.921875 C 432.761719 13.652344 431.195312 10.132812 430.175781 6.535156 C 415.394531 18.15625 411.824219 39.398438 422.429688 55.304688 C 433.585938 72.011719 456.171875 76.492188 472.847656 65.335938 C 486.257812 56.378906 491.808594 40.027344 487.660156 25.300781 C 486.917969 25.878906 486.148438 26.425781 485.378906 26.976562 C 468.699219 38.105469 446.113281 33.597656 434.957031 16.921875 Z M 434.957031 16.921875 " fill-opacity="1" fill-rule="nonzero"/><g clip-path="url(#474b132950)"><path fill="#456073" d="M 442.898438 388.421875 C 442.898438 408.507812 426.632812 424.773438 406.546875 424.773438 C 387.421875 424.773438 371.730469 410.019531 370.304688 391.253906 C 373.847656 392.40625 377.640625 393.039062 381.597656 393.039062 C 401.683594 393.039062 417.949219 376.769531 417.949219 356.6875 C 417.949219 355.722656 417.921875 354.789062 417.839844 353.855469 C 432.402344 358.609375 442.898438 372.292969 442.898438 388.421875 Z M 406.546875 352.070312 C 410.476562 352.070312 414.292969 352.703125 417.839844 353.855469 C 416.382812 335.089844 400.71875 320.332031 381.597656 320.332031 C 361.511719 320.332031 345.242188 336.601562 345.242188 356.6875 C 345.242188 372.816406 355.765625 386.5 370.304688 391.253906 C 370.21875 390.316406 370.191406 389.382812 370.191406 388.421875 C 370.191406 368.335938 386.488281 352.070312 406.546875 352.070312 Z M 312.820312 236.636719 C 314.6875 233.148438 317.023438 230.125 319.71875 227.515625 C 302.488281 219.957031 282.074219 226.800781 273.0625 243.671875 C 263.609375 261.367188 270.285156 283.402344 287.980469 292.882812 C 302.214844 300.496094 319.222656 297.664062 330.269531 287.085938 C 329.417969 286.699219 328.566406 286.289062 327.714844 285.847656 C 310.019531 276.371094 303.339844 254.332031 312.820312 236.636719 Z M 376.925781 270.902344 C 386.378906 253.207031 379.699219 231.167969 362.003906 221.691406 C 347.773438 214.078125 330.761719 216.910156 319.71875 227.488281 C 320.570312 227.871094 321.421875 228.285156 322.273438 228.722656 C 339.96875 238.175781 346.671875 260.210938 337.191406 277.9375 C 335.324219 281.425781 332.988281 284.449219 330.296875 287.058594 C 347.496094 294.640625 367.914062 287.773438 376.925781 270.902344 Z M 495.710938 211.332031 C 484.554688 194.625 461.96875 190.144531 445.289062 201.300781 C 431.878906 210.257812 426.328125 226.609375 430.476562 241.335938 C 431.21875 240.757812 431.988281 240.210938 432.757812 239.660156 C 449.464844 228.503906 472.023438 232.984375 483.179688 249.6875 C 485.378906 252.957031 486.945312 256.476562 487.960938 260.074219 C 502.742188 248.453125 506.316406 227.210938 495.710938 211.332031 Z M 435.230469 251.722656 C 433.035156 248.453125 431.46875 244.933594 430.449219 241.335938 C 415.667969 252.957031 412.097656 274.199219 422.703125 290.109375 C 433.859375 306.8125 456.445312 311.292969 473.121094 300.136719 C 486.53125 291.179688 492.082031 274.832031 487.933594 260.101562 C 487.191406 260.679688 486.421875 261.230469 485.652344 261.777344 C 468.972656 272.90625 446.386719 268.402344 435.230469 251.722656 Z M 435.230469 251.722656 " fill-opacity="1" fill-rule="nonzero"/></g><path fill="#456073" d="M 442.898438 608.300781 C 442.898438 628.386719 426.632812 644.652344 406.546875 644.652344 C 387.421875 644.652344 371.730469 629.894531 370.304688 611.128906 C 373.847656 612.285156 377.640625 612.914062 381.597656 612.914062 C 401.683594 612.914062 417.949219 596.648438 417.949219 576.5625 C 417.949219 575.601562 417.921875 574.667969 417.839844 573.734375 C 432.402344 578.484375 442.898438 592.171875 442.898438 608.300781 Z M 406.546875 571.945312 C 410.476562 571.945312 414.292969 572.578125 417.839844 573.734375 C 416.382812 554.964844 400.71875 540.210938 381.597656 540.210938 C 361.511719 540.210938 345.242188 556.476562 345.242188 576.5625 C 345.242188 592.691406 355.765625 606.375 370.304688 611.128906 C 370.21875 610.195312 370.191406 609.261719 370.191406 608.300781 C 370.191406 588.214844 386.488281 571.945312 406.546875 571.945312 Z M 312.820312 456.515625 C 314.6875 453.023438 317.023438 450.003906 319.71875 447.390625 C 302.488281 439.835938 282.074219 446.675781 273.0625 463.546875 C 263.609375 481.242188 270.285156 503.28125 287.980469 512.761719 C 302.214844 520.371094 319.222656 517.542969 330.269531 506.960938 C 329.417969 506.578125 328.566406 506.167969 327.714844 505.726562 C 310.019531 496.246094 303.339844 474.210938 312.820312 456.515625 Z M 376.925781 490.777344 C 386.378906 473.082031 379.699219 451.046875 362.003906 441.566406 C 347.773438 433.957031 330.761719 436.785156 319.71875 447.363281 C 320.570312 447.75 321.421875 448.160156 322.273438 448.601562 C 339.96875 458.054688 346.671875 480.089844 337.191406 497.8125 C 335.324219 501.300781 332.988281 504.324219 330.296875 506.933594 C 347.496094 514.519531 367.914062 507.648438 376.925781 490.777344 Z M 495.710938 431.207031 C 484.554688 414.5 461.96875 410.023438 445.289062 421.179688 C 431.878906 430.136719 426.328125 446.484375 430.476562 461.214844 C 431.21875 460.636719 431.988281 460.085938 432.757812 459.535156 C 449.464844 448.382812 472.023438 452.859375 483.179688 469.566406 C 485.378906 472.835938 486.945312 476.351562 487.960938 479.953125 C 502.742188 468.328125 506.316406 447.089844 495.710938 431.207031 Z M 435.230469 471.597656 C 433.035156 468.328125 431.46875 464.8125 430.449219 461.214844 C 415.667969 472.835938 412.097656 494.074219 422.703125 509.984375 C 433.859375 526.691406 456.445312 531.171875 473.121094 520.015625 C 486.53125 511.058594 492.082031 494.707031 487.933594 479.980469 C 487.191406 480.558594 486.421875 481.105469 485.652344 481.65625 C 468.972656 492.785156 446.386719 488.277344 435.230469 471.597656 Z M 435.230469 471.597656 " fill-opacity="1" fill-rule="nonzero"/><path fill="#456073" d="M 697.613281 153.621094 C 697.613281 173.707031 681.34375 189.972656 661.257812 189.972656 C 642.136719 189.972656 626.445312 175.21875 625.015625 156.449219 C 628.5625 157.605469 632.355469 158.234375 636.308594 158.234375 C 656.394531 158.234375 672.664062 141.96875 672.664062 121.882812 C 672.664062 120.921875 672.636719 119.988281 672.554688 119.054688 C 687.117188 123.808594 697.613281 137.492188 697.613281 153.621094 Z M 661.257812 117.269531 C 665.1875 117.269531 669.007812 117.898438 672.554688 119.054688 C 671.097656 100.285156 655.433594 85.53125 636.308594 85.53125 C 616.222656 85.53125 599.957031 101.796875 599.957031 121.882812 C 599.957031 138.011719 610.480469 151.695312 625.015625 156.449219 C 624.933594 155.515625 624.90625 154.582031 624.90625 153.621094 C 624.90625 133.535156 641.203125 117.269531 661.257812 117.269531 Z M 567.535156 1.835938 C 569.402344 -1.652344 571.738281 -4.675781 574.429688 -7.285156 C 557.203125 -14.84375 536.789062 -8 527.773438 8.871094 C 518.324219 26.566406 525 48.601562 542.695312 58.082031 C 556.929688 65.691406 573.9375 62.863281 584.984375 52.285156 C 584.128906 51.898438 583.277344 51.488281 582.425781 51.046875 C 564.730469 41.566406 558.054688 19.53125 567.535156 1.835938 Z M 631.640625 36.101562 C 641.089844 18.40625 634.414062 -3.632812 616.71875 -13.113281 C 602.484375 -20.722656 585.476562 -17.894531 574.429688 -7.3125 C 575.28125 -6.929688 576.136719 -6.519531 576.988281 -6.078125 C 594.683594 3.375 601.386719 25.410156 591.90625 43.132812 C 590.039062 46.625 587.703125 49.644531 585.011719 52.257812 C 602.210938 59.839844 622.625 52.972656 631.640625 36.101562 Z M 750.421875 -23.472656 C 739.269531 -40.175781 716.679688 -44.65625 700.003906 -33.5 C 686.59375 -24.542969 681.042969 -8.195312 685.191406 6.535156 C 685.933594 5.957031 686.703125 5.40625 687.472656 4.859375 C 704.179688 -6.296875 726.738281 -1.820312 737.894531 14.886719 C 740.09375 18.15625 741.660156 21.675781 742.675781 25.273438 C 757.457031 13.652344 761.03125 -7.589844 750.421875 -23.472656 Z M 689.945312 16.921875 C 687.746094 13.652344 686.179688 10.132812 685.164062 6.535156 C 670.382812 18.15625 666.808594 39.398438 677.417969 55.304688 C 688.570312 72.011719 711.160156 76.492188 727.835938 65.335938 C 741.246094 56.378906 746.796875 40.027344 742.648438 25.300781 C 741.90625 25.878906 741.136719 26.425781 740.367188 26.976562 C 723.6875 38.105469 701.101562 33.597656 689.945312 16.921875 Z M 689.945312 16.921875 " fill-opacity="1" fill-rule="nonzero"/><g clip-path="url(#dd6d22ed30)"><path fill="#456073" d="M 697.886719 388.421875 C 697.886719 408.507812 681.617188 424.773438 661.535156 424.773438 C 642.410156 424.773438 626.71875 410.019531 625.289062 391.253906 C 628.835938 392.40625 632.628906 393.039062 636.582031 393.039062 C 656.667969 393.039062 672.9375 376.769531 672.9375 356.6875 C 672.9375 355.722656 672.910156 354.789062 672.828125 353.855469 C 687.390625 358.609375 697.886719 372.292969 697.886719 388.421875 Z M 661.535156 352.070312 C 665.460938 352.070312 669.28125 352.703125 672.828125 353.855469 C 671.371094 335.089844 655.707031 320.332031 636.582031 320.332031 C 616.496094 320.332031 600.230469 336.601562 600.230469 356.6875 C 600.230469 372.816406 610.753906 386.5 625.289062 391.253906 C 625.207031 390.316406 625.179688 389.382812 625.179688 388.421875 C 625.179688 368.335938 641.476562 352.070312 661.535156 352.070312 Z M 567.808594 236.636719 C 569.675781 233.148438 572.011719 230.125 574.703125 227.515625 C 557.476562 219.957031 537.0625 226.800781 528.046875 243.671875 C 518.597656 261.367188 525.273438 283.402344 542.96875 292.882812 C 557.203125 300.496094 574.210938 297.664062 585.257812 287.085938 C 584.40625 286.699219 583.550781 286.289062 582.699219 285.847656 C 565.003906 276.371094 558.328125 254.332031 567.808594 236.636719 Z M 631.914062 270.902344 C 641.363281 253.207031 634.6875 231.167969 616.992188 221.691406 C 602.757812 214.078125 585.75 216.910156 574.703125 227.488281 C 575.558594 227.871094 576.410156 228.285156 577.261719 228.722656 C 594.957031 238.175781 601.660156 260.210938 592.179688 277.9375 C 590.3125 281.425781 587.976562 284.449219 585.285156 287.058594 C 602.484375 294.640625 622.898438 287.773438 631.914062 270.902344 Z M 750.695312 211.332031 C 739.542969 194.625 716.953125 190.144531 700.277344 201.300781 C 686.867188 210.257812 681.316406 226.609375 685.464844 241.335938 C 686.207031 240.757812 686.976562 240.210938 687.746094 239.660156 C 704.453125 228.503906 727.011719 232.984375 738.167969 249.6875 C 740.367188 252.957031 741.933594 256.476562 742.949219 260.074219 C 757.730469 248.453125 761.304688 227.210938 750.695312 211.332031 Z M 690.21875 251.722656 C 688.019531 248.453125 686.457031 244.933594 685.4375 241.335938 C 670.65625 252.957031 667.082031 274.199219 677.691406 290.109375 C 688.84375 306.8125 711.433594 311.292969 728.109375 300.136719 C 741.519531 291.179688 747.070312 274.832031 742.921875 260.101562 C 742.179688 260.679688 741.410156 261.230469 740.640625 261.777344 C 723.960938 272.90625 701.375 268.402344 690.21875 251.722656 Z M 690.21875 251.722656 " fill-opacity="1" fill-rule="nonzero"/></g><path fill="#456073" d="M 697.886719 608.300781 C 697.886719 628.386719 681.617188 644.652344 661.535156 644.652344 C 642.410156 644.652344 626.71875 629.894531 625.289062 611.128906 C 628.835938 612.285156 632.628906 612.914062 636.582031 612.914062 C 656.667969 612.914062 672.9375 596.648438 672.9375 576.5625 C 672.9375 575.601562 672.910156 574.667969 672.828125 573.734375 C 687.390625 578.484375 697.886719 592.171875 697.886719 608.300781 Z M 661.535156 571.945312 C 665.460938 571.945312 669.28125 572.578125 672.828125 573.734375 C 671.371094 554.964844 655.707031 540.210938 636.582031 540.210938 C 616.496094 540.210938 600.230469 556.476562 600.230469 576.5625 C 600.230469 592.691406 610.753906 606.375 625.289062 611.128906 C 625.207031 610.195312 625.179688 609.261719 625.179688 608.300781 C 625.179688 588.214844 641.476562 571.945312 661.535156 571.945312 Z M 567.808594 456.515625 C 569.675781 453.023438 572.011719 450.003906 574.703125 447.390625 C 557.476562 439.835938 537.0625 446.675781 528.046875 463.546875 C 518.597656 481.242188 525.273438 503.28125 542.96875 512.761719 C 557.203125 520.371094 574.210938 517.542969 585.257812 506.960938 C 584.40625 506.578125 583.550781 506.167969 582.699219 505.726562 C 565.003906 496.246094 558.328125 474.210938 567.808594 456.515625 Z M 631.914062 490.777344 C 641.363281 473.082031 634.6875 451.046875 616.992188 441.566406 C 602.757812 433.957031 585.75 436.785156 574.703125 447.363281 C 575.558594 447.75 576.410156 448.160156 577.261719 448.601562 C 594.957031 458.054688 601.660156 480.089844 592.179688 497.8125 C 590.3125 501.300781 587.976562 504.324219 585.285156 506.933594 C 602.484375 514.519531 622.898438 507.648438 631.914062 490.777344 Z M 750.695312 431.207031 C 739.542969 414.5 716.953125 410.023438 700.277344 421.179688 C 686.867188 430.136719 681.316406 446.484375 685.464844 461.214844 C 686.207031 460.636719 686.976562 460.085938 687.746094 459.535156 C 704.453125 448.382812 727.011719 452.859375 738.167969 469.566406 C 740.367188 472.835938 741.933594 476.351562 742.949219 479.953125 C 757.730469 468.328125 761.304688 447.089844 750.695312 431.207031 Z M 690.21875 471.597656 C 688.019531 468.328125 686.457031 464.8125 685.4375 461.214844 C 670.65625 472.835938 667.082031 494.074219 677.691406 509.984375 C 688.84375 526.691406 711.433594 531.171875 728.109375 520.015625 C 741.519531 511.058594 747.070312 494.707031 742.921875 479.980469 C 742.179688 480.558594 741.410156 481.105469 740.640625 481.65625 C 723.960938 492.785156 701.375 488.277344 690.21875 471.597656 Z M 690.21875 471.597656 " fill-opacity="1" fill-rule="nonzero"/><g clip-path="url(#67d16c060f)"><path fill="#456073" d="M 940.328125 161.082031 C 940.328125 181.167969 924.058594 197.433594 903.972656 197.433594 C 884.847656 197.433594 869.160156 182.679688 867.730469 163.914062 C 871.277344 165.066406 875.066406 165.699219 879.023438 165.699219 C 899.109375 165.699219 915.375 149.433594 915.375 129.347656 C 915.375 128.382812 915.347656 127.449219 915.265625 126.515625 C 929.828125 131.269531 940.328125 144.953125 940.328125 161.082031 Z M 903.972656 124.730469 C 907.902344 124.730469 911.722656 125.363281 915.265625 126.515625 C 913.8125 107.75 898.148438 92.992188 879.023438 92.992188 C 858.9375 92.992188 842.671875 109.261719 842.671875 129.347656 C 842.671875 145.476562 853.195312 159.160156 867.730469 163.914062 C 867.648438 162.976562 867.621094 162.042969 867.621094 161.082031 C 867.621094 140.996094 883.914062 124.730469 903.972656 124.730469 Z M 810.25 9.296875 C 812.117188 5.808594 814.453125 2.785156 817.144531 0.175781 C 799.917969 -7.382812 779.5 -0.539062 770.488281 16.332031 C 761.035156 34.027344 767.714844 56.0625 785.410156 65.542969 C 799.640625 73.15625 816.652344 70.324219 827.695312 59.746094 C 826.84375 59.363281 825.992188 58.949219 825.140625 58.507812 C 807.445312 49.03125 800.769531 26.992188 810.25 9.296875 Z M 874.351562 43.5625 C 883.804688 25.867188 877.128906 3.828125 859.433594 -5.648438 C 845.199219 -13.261719 828.191406 -10.429688 817.144531 0.148438 C 817.996094 0.53125 818.847656 0.945312 819.699219 1.382812 C 837.394531 10.835938 844.101562 32.875 834.621094 50.597656 C 832.753906 54.085938 830.417969 57.109375 827.722656 59.71875 C 844.925781 67.300781 865.339844 60.433594 874.351562 43.5625 Z M 993.136719 -16.007812 C 981.980469 -32.714844 959.394531 -37.195312 942.714844 -26.039062 C 929.308594 -17.082031 923.757812 -0.730469 927.90625 13.996094 C 928.648438 13.417969 929.417969 12.871094 930.1875 12.320312 C 946.894531 1.164062 969.453125 5.644531 980.609375 22.347656 C 982.804688 25.621094 984.371094 29.136719 985.390625 32.734375 C 1000.171875 21.113281 1003.742188 -0.128906 993.136719 -16.007812 Z M 932.660156 24.382812 C 930.460938 21.113281 928.894531 17.597656 927.878906 13.996094 C 913.097656 25.621094 909.523438 46.859375 920.128906 62.769531 C 931.285156 79.476562 953.871094 83.953125 970.550781 72.796875 C 983.960938 63.839844 989.511719 47.492188 985.363281 32.761719 C 984.621094 33.339844 983.851562 33.890625 983.082031 34.441406 C 966.402344 45.566406 943.816406 41.0625 932.660156 24.382812 Z M 932.660156 24.382812 " fill-opacity="1" fill-rule="nonzero"/></g><g clip-path="url(#137d41fabd)"><path fill="#456073" d="M 940.601562 395.882812 C 940.601562 415.96875 924.332031 432.238281 904.246094 432.238281 C 885.125 432.238281 869.433594 417.480469 868.003906 398.714844 C 871.550781 399.867188 875.339844 400.5 879.296875 400.5 C 899.382812 400.5 915.652344 384.234375 915.652344 364.148438 C 915.652344 363.1875 915.621094 362.25 915.539062 361.316406 C 930.101562 366.070312 940.601562 379.753906 940.601562 395.882812 Z M 904.246094 359.53125 C 908.175781 359.53125 911.996094 360.164062 915.539062 361.316406 C 914.085938 342.550781 898.421875 327.796875 879.296875 327.796875 C 859.210938 327.796875 842.945312 344.0625 842.945312 364.148438 C 842.945312 380.277344 853.46875 393.960938 868.003906 398.714844 C 867.921875 397.78125 867.894531 396.847656 867.894531 395.882812 C 867.894531 375.796875 884.1875 359.53125 904.246094 359.53125 Z M 810.523438 244.097656 C 812.390625 240.609375 814.726562 237.585938 817.417969 234.976562 C 800.191406 227.421875 779.773438 234.261719 770.761719 251.132812 C 761.308594 268.828125 767.988281 290.867188 785.683594 300.34375 C 799.914062 307.957031 816.925781 305.125 827.96875 294.546875 C 827.117188 294.164062 826.265625 293.75 825.414062 293.3125 C 807.71875 283.832031 801.042969 261.792969 810.523438 244.097656 Z M 874.625 278.363281 C 884.078125 260.667969 877.402344 238.632812 859.707031 229.152344 C 845.472656 221.539062 828.464844 224.371094 817.417969 234.949219 C 818.269531 235.335938 819.121094 235.746094 819.972656 236.1875 C 837.667969 245.636719 844.375 267.675781 834.894531 285.398438 C 833.027344 288.886719 830.691406 291.910156 827.996094 294.519531 C 845.199219 302.105469 865.613281 295.234375 874.625 278.363281 Z M 993.410156 218.792969 C 982.253906 202.085938 959.667969 197.609375 942.992188 208.765625 C 929.582031 217.722656 924.03125 234.070312 928.179688 248.796875 C 928.921875 248.222656 929.691406 247.671875 930.460938 247.121094 C 947.167969 235.964844 969.726562 240.445312 980.882812 257.152344 C 983.078125 260.421875 984.644531 263.9375 985.664062 267.539062 C 1000.445312 255.914062 1004.015625 234.675781 993.410156 218.792969 Z M 932.933594 259.183594 C 930.734375 255.914062 929.167969 252.398438 928.152344 248.796875 C 913.371094 260.421875 909.796875 281.660156 920.402344 297.570312 C 931.558594 314.277344 954.144531 318.753906 970.824219 307.597656 C 984.234375 298.640625 989.785156 282.292969 985.636719 267.566406 C 984.894531 268.140625 984.125 268.691406 983.355469 269.242188 C 966.675781 280.371094 944.089844 275.863281 932.933594 259.183594 Z M 932.933594 259.183594 " fill-opacity="1" fill-rule="nonzero"/></g><path fill="#456073" d="M 940.601562 615.761719 C 940.601562 635.847656 924.332031 652.113281 904.246094 652.113281 C 885.125 652.113281 869.433594 637.359375 868.003906 618.589844 C 871.550781 619.746094 875.339844 620.378906 879.296875 620.378906 C 899.382812 620.378906 915.652344 604.109375 915.652344 584.023438 C 915.652344 583.0625 915.621094 582.128906 915.539062 581.195312 C 930.101562 585.949219 940.601562 599.632812 940.601562 615.761719 Z M 904.246094 579.410156 C 908.175781 579.410156 911.996094 580.039062 915.539062 581.195312 C 914.085938 562.429688 898.421875 547.671875 879.296875 547.671875 C 859.210938 547.671875 842.945312 563.9375 842.945312 584.023438 C 842.945312 600.15625 853.46875 613.839844 868.003906 618.589844 C 867.921875 617.65625 867.894531 616.722656 867.894531 615.761719 C 867.894531 595.675781 884.1875 579.410156 904.246094 579.410156 Z M 810.523438 463.976562 C 812.390625 460.488281 814.726562 457.464844 817.417969 454.855469 C 800.191406 447.296875 779.773438 454.140625 770.761719 471.011719 C 761.308594 488.707031 767.988281 510.742188 785.683594 520.222656 C 799.914062 527.835938 816.925781 525.003906 827.96875 514.425781 C 827.117188 514.039062 826.265625 513.628906 825.414062 513.1875 C 807.71875 503.707031 801.042969 481.671875 810.523438 463.976562 Z M 874.625 498.242188 C 884.078125 480.546875 877.402344 458.507812 859.707031 449.027344 C 845.472656 441.417969 828.464844 444.25 817.417969 454.828125 C 818.269531 455.210938 819.121094 455.625 819.972656 456.0625 C 837.667969 465.515625 844.375 487.550781 834.894531 505.273438 C 833.027344 508.765625 830.691406 511.789062 827.996094 514.398438 C 845.199219 521.980469 865.613281 515.113281 874.625 498.242188 Z M 993.410156 438.671875 C 982.253906 421.964844 959.667969 417.484375 942.992188 428.640625 C 929.582031 437.597656 924.03125 453.949219 928.179688 468.675781 C 928.921875 468.097656 929.691406 467.550781 930.460938 467 C 947.167969 455.84375 969.726562 460.324219 980.882812 477.027344 C 983.078125 480.296875 984.644531 483.816406 985.664062 487.414062 C 1000.445312 475.792969 1004.015625 454.550781 993.410156 438.671875 Z M 932.933594 479.0625 C 930.734375 475.792969 929.167969 472.273438 928.152344 468.675781 C 913.371094 480.296875 909.796875 501.539062 920.402344 517.449219 C 931.558594 534.152344 954.144531 538.632812 970.824219 527.476562 C 984.234375 518.519531 989.785156 502.171875 985.636719 487.441406 C 984.894531 488.019531 984.125 488.570312 983.355469 489.117188 C 966.675781 500.246094 944.089844 495.742188 932.933594 479.0625 Z M 932.933594 479.0625 " fill-opacity="1" fill-rule="nonzero"/></svg>